# xmcd
#
# Track frame offsets: 
#        150
#        12237
#        34647
#        49814
#        57927
#        72480
#        93420
#        111111
#        120560
#        134994
#        148589
#
# Disc length: 2173 seconds
#
# Revision: 1
# Processed by: cddbd v1.5PL3 Copyright (c) Steve Scherf et al.
# Submitted via: ExactAudioCopy v0.95a5
#
DISCID=a1087b0b
DTITLE=Tracy Chapman - Tracy Chapman
DYEAR=1988
DGENRE=Blues
TTITLE0=Tracy Chapman - For You
TTITLE1=Tracy Chapman - Talkin' Bout A Revolution
TTITLE2=Tracy Chapman - Fast Car
TTITLE3=Tracy Chapman - Across The Lines
TTITLE4=Tracy Chapman - Behind The Wall
TTITLE5=Tracy Chapman - Baby Can I Hold You
TTITLE6=Tracy Chapman - Mountains O' Things
TTITLE7=Tracy Chapman - She's Got Her Ticket
TTITLE8=Tracy Chapman - Why
TTITLE9=Tracy Chapman - For My Lover
TTITLE10=Tracy Chapman - If Not Now
EXTD=
EXTT0=
EXTT1=
EXTT2=
EXTT3=
EXTT4=
EXTT5=
EXTT6=
EXTT7=
EXTT8=
EXTT9=
EXTT10=
PLAYORDER=
